<?xml version="1.0" encoding="UTF-8"?>
<svg width="32px" height="32px" viewBox="0 0 32 32" version="1.1" xmlns="http://www.w3.org/2000/svg" xmlns:xlink="http://www.w3.org/1999/xlink">
    <!-- Generator: Sketch 50.2 (55047) - http://www.bohemiancoding.com/sketch -->
    <title>Group 2</title>
    <desc>Created with Sketch.</desc>
    <defs></defs>
    <g id="Page-1" stroke="none" stroke-width="1" fill="none" fill-rule="evenodd">
        <g id="Group-2" transform="translate(1.000000, 1.000000)" fill="#000000" fill-rule="nonzero">
            <g id="Group" transform="translate(6.210938, 11.660156)">
                <g id="one">
                    <path d="M3.28286638,0.00277093596 C1.46513239,0.00277093596 0.00207820197,1.5101601 0.00207820197,3.32789409 C0.00207820197,5.18996305 1.50946736,6.69735222 3.32720135,6.69735222 C5.14493534,6.69735222 6.65232451,5.18996305 6.65232451,3.32789409 C6.60798953,1.46582512 5.10060037,-0.0415640394 3.28286638,0.00277093596 Z M3.32720135,5.50030788 C2.13015702,5.50030788 1.11045259,4.52493842 1.11045259,3.28355911 C1.11045259,2.08651478 2.08582204,1.11114532 3.28286638,1.06681034 C4.52424569,1.02247537 5.49961515,1.99784483 5.54395012,3.23922414 C5.49961515,4.52493842 4.52424569,5.50030788 3.32720135,5.50030788 Z" id="Shape"></path>
                    <path d="M12.947891,5.85498768 L12.947891,0.800800493 C12.947891,0.401785714 13.036561,0.0914408867 12.4158713,0.0914408867 C11.8395166,0.0914408867 11.8395166,0.313115764 11.8395166,0.756465517 C11.8838516,1.59883005 11.9725216,3.77124384 11.7065117,3.81557882 C11.4848368,3.85991379 11.3518319,3.54956897 11.218827,3.37222906 C10.4651324,2.35252463 9.66710283,1.37715517 8.91340825,0.357450739 C8.69173337,0.0914408867 8.4700585,0.0471059113 8.20404865,0.135775862 C7.89370382,0.224445813 8.02670874,0.490455665 8.02670874,0.667795567 L8.02670874,3.32789409 C8.02670874,4.25892857 8.07104372,5.18996305 8.02670874,6.12099754 C8.02670874,6.60868227 8.2927186,6.56434729 8.60306342,6.56434729 C8.86907328,6.56434729 9.1794181,6.65301724 9.1794181,6.16533251 C9.13508313,5.23429803 9.1794181,4.25892857 9.1794181,3.32789409 C9.1794181,3.15055419 9.09074815,2.92887931 9.26808805,2.88454433 C9.48976293,2.75153941 9.57843288,3.06188424 9.66710283,3.19488916 C10.4207974,4.2145936 11.218827,5.18996305 11.9725216,6.20966749 C12.1941964,6.52001232 12.4602063,6.74168719 12.8148861,6.60868227 C13.0808959,6.38700739 12.947891,6.07666256 12.947891,5.85498768 Z M16.9380388,5.41163793 C16.6720289,5.45597291 16.4060191,5.41163793 16.0956743,5.41163793 C15.9183344,5.41163793 15.7853294,5.36730296 15.7409945,5.14562808 C15.5636546,4.08158867 15.6966595,3.90424877 16.7606989,3.85991379 C16.9380388,3.85991379 17.2040486,3.99291872 17.2927186,3.68257389 C17.4700585,3.06188424 17.2483836,2.75153941 16.627694,2.75153941 L16.1400092,2.75153941 C15.8739994,2.75153941 15.7853294,2.70720443 15.7409945,2.39685961 C15.6523245,1.19981527 15.6523245,1.19981527 16.8493688,1.19981527 L17.1153787,1.19981527 C17.6030634,1.28848522 17.5587284,0.933805419 17.5587284,0.667795567 C17.5587284,0.401785714 17.6473984,0.0471059113 17.1597137,0.0914408867 C16.4503541,0.135775862 15.7853294,0.135775862 15.0759698,0.0914408867 C14.765625,0.0914408867 14.676955,0.180110837 14.676955,0.490455665 L14.676955,6.12099754 C14.676955,6.43134236 14.765625,6.52001232 15.0759698,6.52001232 C15.7853294,6.52001232 16.4503541,6.47567734 17.1597137,6.52001232 C17.5143935,6.52001232 17.5587284,6.34267241 17.5587284,6.07666256 C17.6030634,5.58897783 17.5143935,5.32296798 16.9380388,5.41163793 Z" id="Shape"></path>
                </g>
            </g>
            <g id="2" stroke="#000000">
                <polygon id="Shape" points="10.0378532 0.0288265693 10.0378532 1.23057676 1.33611363 1.25300943 1.3585463 10.0658442 0.0232683091 10.0658442 0.0232683091 0.0288265693"></polygon>
            </g>
            <g id="1" transform="translate(19.951172, 19.921875)" stroke="#000000">
                <polygon id="Shape" points="0.0109748971 10.0492984 0.0109748971 8.84754824 8.7127145 8.82511557 8.69028183 0.0122808407 10.0255598 0.0122808407 10.0255598 10.0492984"></polygon>
            </g>
        </g>
    </g>
</svg>